<svg id="svgexport-6_-_2023-07-13T131927.845" data-name="svgexport-6 - 2023-07-13T131927.845" xmlns="http://www.w3.org/2000/svg" width="9.566" height="16.853" viewBox="0 0 9.566 16.853">
  <path id="Path_682" data-name="Path 682" d="M6.409,16.853H3.71a.818.818,0,0,1-.818-.818V9.948H1.318A.819.819,0,0,1,.5,9.131V6.522A.818.818,0,0,1,1.318,5.7H2.892V4.4A4.448,4.448,0,0,1,4.068,1.212,4.236,4.236,0,0,1,7.191,0L9.25,0a.819.819,0,0,1,.816.817V3.243a.818.818,0,0,1-.817.818H7.863c-.423,0-.53.085-.553.111-.038.043-.083.165-.083.5V5.7H9.144a.831.831,0,0,1,.4.1.82.82,0,0,1,.421.715V9.131a.818.818,0,0,1-.818.817H7.226v6.088A.818.818,0,0,1,6.409,16.853ZM3.88,15.865H6.238V9.506a.547.547,0,0,1,.546-.546h2.2V6.693h-2.2a.546.546,0,0,1-.546-.546V4.673a1.683,1.683,0,0,1,.331-1.155,1.675,1.675,0,0,1,1.294-.445H9.078V.991L7.19.988A3.119,3.119,0,0,0,3.88,4.4V6.147a.546.546,0,0,1-.546.546H1.488V8.96H3.334a.546.546,0,0,1,.546.546ZM9.248.991h0Zm0,0" transform="translate(-0.5 0)" fill="#fff"/>
</svg>
