<svg id="svgexport-6_-_2023-07-13T131943.172" data-name="svgexport-6 - 2023-07-13T131943.172" xmlns="http://www.w3.org/2000/svg" width="16.686" height="16.853" viewBox="0 0 16.686 16.853">
  <path id="Path_683" data-name="Path 683" d="M12.169,0H4.517A4.545,4.545,0,0,0,0,4.562v7.729a4.545,4.545,0,0,0,4.517,4.562h7.653a4.545,4.545,0,0,0,4.517-4.562V4.562A4.545,4.545,0,0,0,12.169,0Zm3.539,12.291a3.56,3.56,0,0,1-3.539,3.574H4.517A3.56,3.56,0,0,1,.978,12.291V4.562A3.56,3.56,0,0,1,4.517.988h7.653a3.56,3.56,0,0,1,3.538,3.574Zm0,0" fill="#fff"/>
  <path id="Path_684" data-name="Path 684" d="M120.612,67.922a4.608,4.608,0,1,0,4.608,4.608A4.613,4.613,0,0,0,120.612,67.922Zm0,8.228a3.62,3.62,0,1,1,3.62-3.62A3.624,3.624,0,0,1,120.612,76.15Zm4.718-9.865a1.362,1.362,0,1,0,1.362,1.362A1.363,1.363,0,0,0,125.331,66.285Zm0,1.735a.374.374,0,1,1,.374-.374A.374.374,0,0,1,125.331,68.02Zm0,0" transform="translate(-112.353 -64.103)" fill="#fff"/>
</svg>
