<svg id="svgexport-6_-_2023-07-13T132017.630" data-name="svgexport-6 - 2023-07-13T132017.630" xmlns="http://www.w3.org/2000/svg" width="14.847" height="16.853" viewBox="0 0 14.847 16.853">
  <path id="Path_687" data-name="Path 687" d="M3.4,4.991H.587a.575.575,0,0,0-.571.578V16.276a.575.575,0,0,0,.571.577H3.4a.575.575,0,0,0,.571-.577V5.569A.575.575,0,0,0,3.4,4.991ZM2.99,15.864h-2V5.98h2ZM1.992,0a2.015,2.015,0,0,0,0,4.029A2.015,2.015,0,0,0,1.992,0Zm0,3.04A1.026,1.026,0,1,1,3.006,2.014,1.021,1.021,0,0,1,1.992,3.04ZM13.054,6.246a3.628,3.628,0,0,0-3.964-.47V5.543a.549.549,0,0,0-.545-.552H5.684a.549.549,0,0,0-.545.552V16.3a.549.549,0,0,0,.545.552H8.6a.492.492,0,0,0,.489-.494V9.944a1.018,1.018,0,0,1,.968-1.03,1,1,0,0,1,1.028,1.009v6.447a.481.481,0,0,0,.479.484h2.8a.481.481,0,0,0,.479-.484v-6.25a5.055,5.055,0,0,0-1.793-3.872Zm.815,9.618h-1.8V9.923a1.976,1.976,0,1,0-3.952,0v5.942h-2V5.98h2V6.7h0a.5.5,0,0,0,.122.328.485.485,0,0,0,.69.042,2.692,2.692,0,0,1,1.744-.687,2.646,2.646,0,0,1,1.759.624,4.064,4.064,0,0,1,1.441,3.113Zm0,0" fill="#fff"/>
</svg>
