<svg xmlns="http://www.w3.org/2000/svg" width="160" height="32.756" viewBox="0 0 160 32.756">
  <g id="Group_128" data-name="Group 128" transform="translate(1029.239 -735.854)">
    <path id="Path_360" data-name="Path 360" d="M645.487,447.206a122.513,122.513,0,0,0-15.635,18.635c-.454.657-.744.548-.644-.244a66.85,66.85,0,0,1,7.928-23.582.929.929,0,0,1,1.027-.415,54.208,54.208,0,0,1,6.806,2.593,1.724,1.724,0,0,1,.519,3.013" transform="translate(-1658.426 299.455)" fill="#fff"/>
    <path id="Path_361" data-name="Path 361" d="M666.637,468.208l-27.451,12.474c-.64.291-.838.054-.439-.524a116.593,116.593,0,0,1,16.441-19.3,3.3,3.3,0,0,1,3.888-.3,63.525,63.525,0,0,1,7.8,6.2.825.825,0,0,1-.238,1.457" transform="translate(-1664.319 287.803)" fill="#fff"/>
    <path id="Path_362" data-name="Path 362" d="M684.493,426.063v14.56c0,1.08-.664,1.38-1.473.664a70.212,70.212,0,0,0-8.952-6.712c-1.832-1.159-3.6-2.161-5.266-3.023a66.983,66.983,0,0,0-6.711-3.032c-1.633-.63-1.56-1.4.164-1.7a115.5,115.5,0,0,1,15.6-1.525q2.7-.1,5.748-.119a.889.889,0,0,1,.891.886" transform="translate(-1678.414 310.677)" fill="#fff"/>
    <path id="Path_363" data-name="Path 363" d="M796.627,462.986v-1.834a8.954,8.954,0,0,1-6.2,2.65c-5.339,0-8.633-4.295-8.633-9.108a8.751,8.751,0,0,1,8.889-8.925,8.045,8.045,0,0,1,5.244,2.01,4.693,4.693,0,0,1,.64.7h.064v-1.865a.275.275,0,0,1,.281-.268h3.338a.275.275,0,0,1,.281.268v16.37a.274.274,0,0,1-.281.267h-3.338a.275.275,0,0,1-.281-.267m-5.307-13.5a5.3,5.3,0,0,0,0,10.6,5.3,5.3,0,0,0,0-10.6" transform="translate(-1754.593 297.703)" fill="#fff"/>
    <path id="Path_364" data-name="Path 364" d="M842.662,471.072H838.7a.281.281,0,0,1-.258-.392l3.092-7.185L835.2,447.8a.281.281,0,0,1,.261-.387h4.244a.28.28,0,0,1,.265.188l3.963,11.194,4.216-11.2a.281.281,0,0,1,.263-.182h4.206a.281.281,0,0,1,.258.393l-9.957,23.1a.281.281,0,0,1-.258.17" transform="translate(-1788.238 295.772)" fill="#fff"/>
    <path id="Path_365" data-name="Path 365" d="M896.1,462.986v-1.834a8.953,8.953,0,0,1-6.2,2.65c-5.339,0-8.633-4.295-8.633-9.108a8.751,8.751,0,0,1,8.889-8.925,8.045,8.045,0,0,1,5.244,2.01,4.69,4.69,0,0,1,.64.7h.064v-1.865a.275.275,0,0,1,.281-.268h3.338a.275.275,0,0,1,.281.268v16.37a.274.274,0,0,1-.281.267h-3.338a.275.275,0,0,1-.281-.267m-5.307-13.5a5.3,5.3,0,0,0,0,10.6,5.3,5.3,0,0,0,0-10.6" transform="translate(-1817.281 297.703)" fill="#fff"/>
    <path id="Path_366" data-name="Path 366" d="M943.9,453.742v9.222a.275.275,0,0,1-.281.268h-3.69a.275.275,0,0,1-.281-.268V446.62a.275.275,0,0,1,.281-.268h3.339a.275.275,0,0,1,.281.268v1.222h.064a4.066,4.066,0,0,1,3.866-2.065.277.277,0,0,1,.29.267v3.4a.276.276,0,0,1-.267.267c-2.585.176-3.6,1.649-3.6,4.031" transform="translate(-1854.069 297.698)" fill="#fff"/>
    <path id="Path_367" data-name="Path 367" d="M976.094,462.986v-1.834a8.953,8.953,0,0,1-6.2,2.65c-5.34,0-8.633-4.295-8.633-9.108a8.751,8.751,0,0,1,8.889-8.925,8.045,8.045,0,0,1,5.244,2.01,4.689,4.689,0,0,1,.64.7h.064v-1.865a.275.275,0,0,1,.281-.268h3.338a.275.275,0,0,1,.281.268v16.37a.274.274,0,0,1-.281.267h-3.338a.275.275,0,0,1-.281-.267m-5.307-13.5a5.3,5.3,0,0,0,0,10.6,5.3,5.3,0,0,0,0-10.6" transform="translate(-1867.695 297.703)" fill="#fff"/>
    <path id="Path_368" data-name="Path 368" d="M1031.045,455.084a.281.281,0,0,1-.281-.281V446c0-2.558-.416-5.371-3.645-5.371-3.165,0-3.581,2.974-3.581,5.436V454.8a.281.281,0,0,1-.281.281h-3.69a.281.281,0,0,1-.281-.281v-23.1a.281.281,0,0,1,.281-.281h3.69a.281.281,0,0,1,.281.281v6.88a6.346,6.346,0,0,1,4.6-1.854,7.288,7.288,0,0,1,5.467,2.717,8.678,8.678,0,0,1,1.407,5.34V454.8a.281.281,0,0,1-.281.281Z" transform="translate(-1904.255 306.741)" fill="#fff"/>
    <path id="Path_369" data-name="Path 369" d="M760.253,449.564c-.029-.227-.038-.929-.038-1.159V439.32h3a.281.281,0,0,0,.281-.281v-2.624a.281.281,0,0,0-.281-.282h-3V431.7a.281.281,0,0,0-.281-.281h-3.69a.281.281,0,0,0-.281.281v4.43h-1.8a.281.281,0,0,0-.281.282v2.624a.281.281,0,0,0,.281.281h1.8v8.659c0,3.7.838,5.1,2.041,6.013a5.4,5.4,0,0,0,3.818,1.091h.969c.258,0,.424-.126.424-.282V452a.28.28,0,0,0-.271-.281c-1.48-.044-2.492-.609-2.69-2.151" transform="translate(-1737.006 306.741)" fill="#fff"/>
  </g>
</svg>
