<svg id="svgexport-6_-_2023-07-13T131952.012" data-name="svgexport-6 - 2023-07-13T131952.012" xmlns="http://www.w3.org/2000/svg" width="18" height="13.76" viewBox="0 0 18 13.76">
  <path id="Path_685" data-name="Path 685" d="M196.05,108.811l-4.014-2.2a.737.737,0,0,0-1.091.647v4.354a.736.736,0,0,0,1.086.649l4.014-2.158a.737.737,0,0,0,0-1.3Zm-4.04,2.257v-3.254l3,1.641Zm0,0" transform="translate(-184.259 -102.744)" fill="#fff"/>
  <path id="Path_686" data-name="Path 686" d="M17.867,3.248V3.239a4.18,4.18,0,0,0-.793-2.108,2.916,2.916,0,0,0-1.94-.918L15.044.2l-.031,0C12.633.024,9.039,0,9,0H9c-.036,0-3.63.024-6.031.2L2.934.2,2.85.212a2.844,2.844,0,0,0-1.929.946,4.38,4.38,0,0,0-.787,2.07l0,.019C.127,3.309,0,4.757,0,6.211V7.571c0,1.454.127,2.9.132,2.964v.009a4.138,4.138,0,0,0,.79,2.083,2.976,2.976,0,0,0,2,.905c.073.008.136.016.179.023l.042.006c1.374.132,5.682.2,5.864.2h.011c.036,0,3.63-.024,6.009-.2l.031,0,.1-.012a2.778,2.778,0,0,0,1.912-.923,4.379,4.379,0,0,0,.787-2.07l0-.019c.005-.061.133-1.509.133-2.964V6.211c0-1.454-.127-2.9-.133-2.964Zm-.922,4.323c0,1.346-.116,2.732-.127,2.859A3.4,3.4,0,0,1,16.3,11.9a1.727,1.727,0,0,1-1.245.583l-.112.013c-2.3.168-5.76.194-5.919.195-.179,0-4.423-.068-5.756-.193-.068-.011-.142-.02-.22-.029A1.963,1.963,0,0,1,1.7,11.9l-.01-.011a3.085,3.085,0,0,1-.507-1.46c-.008-.1-.128-1.5-.128-2.864V6.211c0-1.344.116-2.729.127-2.859A3.331,3.331,0,0,1,1.7,1.877,1.813,1.813,0,0,1,2.971,1.27l.086-.01C5.392,1.091,8.875,1.066,9,1.065s3.607.026,5.921.195l.093.011a1.881,1.881,0,0,1,1.292.591l0,0a3.135,3.135,0,0,1,.507,1.481c.008.091.128,1.5.128,2.864Zm0,0" fill="#fff"/>
</svg>
